<svg xmlns="http://www.w3.org/2000/svg" viewBox="0 0 512 512" width="512" height="512">
  <rect width="512" height="512" rx="104" fill="#25231f"/>
  <rect x="20" y="20" width="472" height="472" rx="84" fill="none" stroke="#c9a15a" stroke-width="10"/>
  <rect x="38" y="38" width="436" height="436" rx="66" fill="none" stroke="#c9a15a" stroke-width="3" opacity="0.7"/>
  <g fill="none" stroke="#c9a15a" stroke-width="8" stroke-linecap="round">
    <path d="M72 132 C72 98 98 72 132 72"/>
    <path d="M380 72 C414 72 440 98 440 132"/>
    <path d="M440 380 C440 414 414 440 380 440"/>
    <path d="M132 440 C98 440 72 414 72 380"/>
  </g>
  <g fill="#d65a31">
    <circle cx="72" cy="132" r="9"/>
    <circle cx="440" cy="132" r="9"/>
    <circle cx="440" cy="380" r="9"/>
    <circle cx="72" cy="380" r="9"/>
  </g>
  <g fill="none" stroke="#f3f0e8" stroke-width="46" stroke-linecap="round" stroke-linejoin="round">
    <path d="M182 376 L256 142 L330 376"/>
    <path d="M216 282 L296 282"/>
  </g>
  <path d="M182 376 C136 406 108 362 146 324" fill="none" stroke="#d65a31" stroke-width="18" stroke-linecap="round"/>
  <circle cx="256" cy="142" r="22" fill="#d65a31"/>
  <circle cx="256" cy="142" r="9" fill="#f3f0e8"/>
</svg>
